<mxfile host="Electron" agent="Mozilla/5.0 (Windows NT 10.0; Win64; x64) AppleWebKit/537.36 (KHTML, like Gecko) draw.io/26.0.4 Chrome/128.0.6613.186 Electron/32.2.5 Safari/537.36" version="26.0.4">
  <diagram name="Page-1" id="uaXNSbpu-ycqNYDg8uVE">
    <mxGraphModel dx="1036" dy="654" grid="1" gridSize="10" guides="1" tooltips="1" connect="1" arrows="1" fold="1" page="1" pageScale="1" pageWidth="1080" pageHeight="720" math="0" shadow="0">
      <root>
        <mxCell id="0" />
        <mxCell id="1" parent="0" />
        <mxCell id="UDXJ0XU7svnffhlI9s9G-1" value="users" style="shape=table;startSize=30;container=1;collapsible=0;childLayout=tableLayout;fixedRows=1;rowLines=0;fontStyle=1;align=center;resizeLast=1;html=1;swimlaneLine=1;rounded=1;shadow=0;columnLines=0;swimlaneHead=1;swimlaneBody=1;horizontal=1;left=1;right=1;connectable=1;allowArrows=1;cloneable=1;rotatable=1;pointerEvents=1;expand=1;swimlaneFillColor=default;arcSize=7;flipV=0;flipH=0;direction=east;fillStyle=solid;verticalAlign=middle;labelBackgroundColor=none;fontSize=15;fillColor=#f5f5f5;strokeColor=#666666;fontColor=#333333;" vertex="1" parent="1">
          <mxGeometry x="240" y="200" width="200" height="210" as="geometry" />
        </mxCell>
        <mxCell id="UDXJ0XU7svnffhlI9s9G-2" value="" style="shape=tableRow;horizontal=0;startSize=0;swimlaneHead=0;swimlaneBody=0;fillColor=none;collapsible=0;dropTarget=0;points=[[0,0.5],[1,0.5]];portConstraint=eastwest;top=0;left=0;right=0;bottom=0;cloneable=1;rotatable=1;pointerEvents=1;expand=1;swimlaneFillColor=none;align=left;strokeColor=default;swimlaneLine=0;textShadow=0;labelBorderColor=none;labelBackgroundColor=none;verticalAlign=middle;fontColor=default;fontStyle=0" vertex="1" parent="UDXJ0XU7svnffhlI9s9G-1">
          <mxGeometry y="30" width="200" height="30" as="geometry" />
        </mxCell>
        <mxCell id="UDXJ0XU7svnffhlI9s9G-3" value="id" style="shape=partialRectangle;connectable=0;fillColor=none;top=0;left=0;bottom=0;right=0;align=left;spacingLeft=10;overflow=hidden;cloneable=1;rotatable=1;pointerEvents=1;expand=1;swimlaneFillColor=none;fontStyle=1;fontColor=light-dark(#333333, #ededed);html=1;strokeColor=light-dark(#333333, #ededed);swimlaneLine=0;textShadow=0;labelBorderColor=none;labelBackgroundColor=none;verticalAlign=middle;" vertex="1" parent="UDXJ0XU7svnffhlI9s9G-2">
          <mxGeometry width="120" height="30" as="geometry">
            <mxRectangle width="120" height="30" as="alternateBounds" />
          </mxGeometry>
        </mxCell>
        <mxCell id="UDXJ0XU7svnffhlI9s9G-4" value="UUID" style="shape=partialRectangle;connectable=0;fillColor=none;top=0;left=0;bottom=0;right=0;align=right;spacingLeft=0;overflow=hidden;html=1;cloneable=1;rotatable=1;pointerEvents=1;expand=1;swimlaneFillColor=none;fontStyle=2;fontColor=#808080;spacingRight=10;strokeColor=#808080;swimlaneLine=0;textShadow=0;labelBorderColor=none;labelBackgroundColor=none;verticalAlign=middle;" vertex="1" parent="UDXJ0XU7svnffhlI9s9G-2">
          <mxGeometry x="120" width="80" height="30" as="geometry">
            <mxRectangle width="80" height="30" as="alternateBounds" />
          </mxGeometry>
        </mxCell>
        <mxCell id="UDXJ0XU7svnffhlI9s9G-5" value="" style="shape=tableRow;horizontal=0;startSize=0;swimlaneHead=0;swimlaneBody=0;fillColor=none;collapsible=0;dropTarget=0;points=[[0,0.5],[1,0.5]];portConstraint=eastwest;top=0;left=0;right=0;bottom=0;cloneable=1;rotatable=1;pointerEvents=1;expand=1;swimlaneFillColor=none;align=left;swimlaneLine=0;textShadow=0;labelBorderColor=none;labelBackgroundColor=none;verticalAlign=middle;fontColor=default;fontStyle=0;strokeColor=default;" vertex="1" parent="UDXJ0XU7svnffhlI9s9G-1">
          <mxGeometry y="60" width="200" height="30" as="geometry" />
        </mxCell>
        <mxCell id="UDXJ0XU7svnffhlI9s9G-6" value="email" style="shape=partialRectangle;connectable=0;fillColor=none;top=0;left=0;bottom=0;right=0;align=left;spacingLeft=10;overflow=hidden;html=1;cloneable=1;rotatable=1;pointerEvents=1;expand=1;swimlaneFillColor=none;fontStyle=0;fontColor=light-dark(#333333, #ededed);swimlaneLine=0;textShadow=0;labelBorderColor=none;labelBackgroundColor=none;verticalAlign=middle;strokeColor=light-dark(#333333, #ededed);" vertex="1" parent="UDXJ0XU7svnffhlI9s9G-5">
          <mxGeometry width="120" height="30" as="geometry">
            <mxRectangle width="120" height="30" as="alternateBounds" />
          </mxGeometry>
        </mxCell>
        <mxCell id="UDXJ0XU7svnffhlI9s9G-7" value="String" style="shape=partialRectangle;connectable=0;fillColor=none;top=0;left=0;bottom=0;right=0;align=right;spacingLeft=0;overflow=hidden;html=1;cloneable=1;rotatable=1;pointerEvents=1;expand=1;swimlaneFillColor=none;fontStyle=2;fontColor=#808080;spacingRight=10;strokeColor=#808080;swimlaneLine=0;textShadow=0;labelBorderColor=none;labelBackgroundColor=none;verticalAlign=middle;" vertex="1" parent="UDXJ0XU7svnffhlI9s9G-5">
          <mxGeometry x="120" width="80" height="30" as="geometry">
            <mxRectangle width="80" height="30" as="alternateBounds" />
          </mxGeometry>
        </mxCell>
        <mxCell id="UDXJ0XU7svnffhlI9s9G-8" style="shape=tableRow;horizontal=0;startSize=0;swimlaneHead=0;swimlaneBody=0;fillColor=none;collapsible=0;dropTarget=0;points=[[0,0.5],[1,0.5]];portConstraint=eastwest;top=0;left=0;right=0;bottom=0;cloneable=1;rotatable=1;pointerEvents=1;expand=1;swimlaneFillColor=none;align=left;swimlaneLine=0;textShadow=0;labelBorderColor=none;labelBackgroundColor=none;verticalAlign=middle;fontColor=default;fontStyle=0;strokeColor=default;" vertex="1" parent="UDXJ0XU7svnffhlI9s9G-1">
          <mxGeometry y="90" width="200" height="30" as="geometry" />
        </mxCell>
        <mxCell id="UDXJ0XU7svnffhlI9s9G-9" value="password" style="shape=partialRectangle;connectable=0;fillColor=none;top=0;left=0;bottom=0;right=0;align=left;spacingLeft=10;overflow=hidden;html=1;cloneable=1;rotatable=1;pointerEvents=1;expand=1;swimlaneFillColor=none;fontStyle=0;fontColor=light-dark(#333333, #ededed);swimlaneLine=0;textShadow=0;labelBorderColor=none;labelBackgroundColor=none;verticalAlign=middle;strokeColor=light-dark(#333333, #ededed);" vertex="1" parent="UDXJ0XU7svnffhlI9s9G-8">
          <mxGeometry width="120" height="30" as="geometry">
            <mxRectangle width="120" height="30" as="alternateBounds" />
          </mxGeometry>
        </mxCell>
        <mxCell id="UDXJ0XU7svnffhlI9s9G-10" value="String" style="shape=partialRectangle;connectable=0;fillColor=none;top=0;left=0;bottom=0;right=0;align=right;spacingLeft=0;overflow=hidden;html=1;cloneable=1;rotatable=1;pointerEvents=1;expand=1;swimlaneFillColor=none;fontStyle=2;fontColor=#808080;spacingRight=10;strokeColor=#808080;swimlaneLine=0;textShadow=0;labelBorderColor=none;labelBackgroundColor=none;verticalAlign=middle;" vertex="1" parent="UDXJ0XU7svnffhlI9s9G-8">
          <mxGeometry x="120" width="80" height="30" as="geometry">
            <mxRectangle width="80" height="30" as="alternateBounds" />
          </mxGeometry>
        </mxCell>
        <mxCell id="UDXJ0XU7svnffhlI9s9G-11" style="shape=tableRow;horizontal=0;startSize=0;swimlaneHead=0;swimlaneBody=0;fillColor=none;collapsible=0;dropTarget=0;points=[[0,0.5],[1,0.5]];portConstraint=eastwest;top=0;left=0;right=0;bottom=0;cloneable=1;rotatable=1;pointerEvents=1;expand=1;swimlaneFillColor=none;align=left;swimlaneLine=0;textShadow=0;labelBorderColor=none;labelBackgroundColor=none;verticalAlign=middle;fontColor=default;fontStyle=0;strokeColor=default;" vertex="1" parent="UDXJ0XU7svnffhlI9s9G-1">
          <mxGeometry y="120" width="200" height="30" as="geometry" />
        </mxCell>
        <mxCell id="UDXJ0XU7svnffhlI9s9G-12" value="role_id" style="shape=partialRectangle;connectable=0;fillColor=none;top=0;left=0;bottom=0;right=0;align=left;spacingLeft=10;overflow=hidden;html=1;cloneable=1;rotatable=1;pointerEvents=1;expand=1;swimlaneFillColor=none;fontStyle=0;fontColor=light-dark(#333333, #ededed);swimlaneLine=0;textShadow=0;labelBorderColor=none;labelBackgroundColor=none;verticalAlign=middle;strokeColor=light-dark(#333333, #ededed);" vertex="1" parent="UDXJ0XU7svnffhlI9s9G-11">
          <mxGeometry width="120" height="30" as="geometry">
            <mxRectangle width="120" height="30" as="alternateBounds" />
          </mxGeometry>
        </mxCell>
        <mxCell id="UDXJ0XU7svnffhlI9s9G-13" value="UUID" style="shape=partialRectangle;connectable=0;fillColor=none;top=0;left=0;bottom=0;right=0;align=right;spacingLeft=0;overflow=hidden;html=1;cloneable=1;rotatable=1;pointerEvents=1;expand=1;swimlaneFillColor=none;fontStyle=2;fontColor=#808080;spacingRight=10;strokeColor=#808080;swimlaneLine=0;textShadow=0;labelBorderColor=none;labelBackgroundColor=none;verticalAlign=middle;" vertex="1" parent="UDXJ0XU7svnffhlI9s9G-11">
          <mxGeometry x="120" width="80" height="30" as="geometry">
            <mxRectangle width="80" height="30" as="alternateBounds" />
          </mxGeometry>
        </mxCell>
        <mxCell id="UDXJ0XU7svnffhlI9s9G-17" style="shape=tableRow;horizontal=0;startSize=0;swimlaneHead=0;swimlaneBody=0;fillColor=none;collapsible=0;dropTarget=0;points=[[0,0.5],[1,0.5]];portConstraint=eastwest;top=0;left=0;right=0;bottom=0;cloneable=1;rotatable=1;pointerEvents=1;expand=1;swimlaneFillColor=none;align=left;swimlaneLine=0;textShadow=0;labelBorderColor=none;labelBackgroundColor=none;verticalAlign=middle;fontColor=default;fontStyle=0;strokeColor=default;" vertex="1" parent="UDXJ0XU7svnffhlI9s9G-1">
          <mxGeometry y="150" width="200" height="30" as="geometry" />
        </mxCell>
        <mxCell id="UDXJ0XU7svnffhlI9s9G-18" value="created_at" style="shape=partialRectangle;connectable=0;fillColor=none;top=0;left=0;bottom=0;right=0;align=left;spacingLeft=10;overflow=hidden;html=1;cloneable=1;rotatable=1;pointerEvents=1;expand=1;swimlaneFillColor=none;fontStyle=0;fontColor=light-dark(#333333, #ededed);swimlaneLine=0;textShadow=0;labelBorderColor=none;labelBackgroundColor=none;verticalAlign=middle;strokeColor=light-dark(#333333, #ededed);" vertex="1" parent="UDXJ0XU7svnffhlI9s9G-17">
          <mxGeometry width="120" height="30" as="geometry">
            <mxRectangle width="120" height="30" as="alternateBounds" />
          </mxGeometry>
        </mxCell>
        <mxCell id="UDXJ0XU7svnffhlI9s9G-19" value="DateTime" style="shape=partialRectangle;connectable=0;fillColor=none;top=0;left=0;bottom=0;right=0;align=right;spacingLeft=0;overflow=hidden;html=1;cloneable=1;rotatable=1;pointerEvents=1;expand=1;swimlaneFillColor=none;fontStyle=2;fontColor=#808080;spacingRight=10;strokeColor=#808080;swimlaneLine=0;textShadow=0;labelBorderColor=none;labelBackgroundColor=none;verticalAlign=middle;" vertex="1" parent="UDXJ0XU7svnffhlI9s9G-17">
          <mxGeometry x="120" width="80" height="30" as="geometry">
            <mxRectangle width="80" height="30" as="alternateBounds" />
          </mxGeometry>
        </mxCell>
        <mxCell id="UDXJ0XU7svnffhlI9s9G-20" style="shape=tableRow;horizontal=0;startSize=0;swimlaneHead=0;swimlaneBody=0;fillColor=none;collapsible=0;dropTarget=0;points=[[0,0.5],[1,0.5]];portConstraint=eastwest;top=0;left=0;right=0;bottom=0;cloneable=1;rotatable=1;pointerEvents=1;expand=1;swimlaneFillColor=none;align=left;swimlaneLine=0;textShadow=0;labelBorderColor=none;labelBackgroundColor=none;verticalAlign=middle;fontColor=default;fontStyle=0;strokeColor=default;" vertex="1" parent="UDXJ0XU7svnffhlI9s9G-1">
          <mxGeometry y="180" width="200" height="30" as="geometry" />
        </mxCell>
        <mxCell id="UDXJ0XU7svnffhlI9s9G-21" value="udated_at" style="shape=partialRectangle;connectable=0;fillColor=none;top=0;left=0;bottom=0;right=0;align=left;spacingLeft=10;overflow=hidden;html=1;cloneable=1;rotatable=1;pointerEvents=1;expand=1;swimlaneFillColor=none;fontStyle=0;fontColor=light-dark(#333333, #ededed);swimlaneLine=0;textShadow=0;labelBorderColor=none;labelBackgroundColor=none;verticalAlign=middle;strokeColor=light-dark(#333333, #ededed);" vertex="1" parent="UDXJ0XU7svnffhlI9s9G-20">
          <mxGeometry width="120" height="30" as="geometry">
            <mxRectangle width="120" height="30" as="alternateBounds" />
          </mxGeometry>
        </mxCell>
        <mxCell id="UDXJ0XU7svnffhlI9s9G-22" value="DateTime" style="shape=partialRectangle;connectable=0;fillColor=none;top=0;left=0;bottom=0;right=0;align=right;spacingLeft=0;overflow=hidden;html=1;cloneable=1;rotatable=1;pointerEvents=1;expand=1;swimlaneFillColor=none;fontStyle=2;fontColor=#808080;spacingRight=10;strokeColor=#808080;swimlaneLine=0;textShadow=0;labelBorderColor=none;labelBackgroundColor=none;verticalAlign=middle;" vertex="1" parent="UDXJ0XU7svnffhlI9s9G-20">
          <mxGeometry x="120" width="80" height="30" as="geometry">
            <mxRectangle width="80" height="30" as="alternateBounds" />
          </mxGeometry>
        </mxCell>
        <mxCell id="UDXJ0XU7svnffhlI9s9G-26" value="roles" style="shape=table;startSize=30;container=1;collapsible=0;childLayout=tableLayout;fixedRows=1;rowLines=0;fontStyle=1;align=center;resizeLast=1;html=1;swimlaneLine=1;rounded=1;shadow=0;columnLines=0;swimlaneHead=1;swimlaneBody=1;horizontal=1;left=1;right=1;connectable=1;allowArrows=1;cloneable=1;rotatable=1;pointerEvents=1;expand=1;swimlaneFillColor=default;arcSize=7;flipV=0;flipH=0;direction=east;fillStyle=solid;verticalAlign=middle;labelBackgroundColor=none;fontSize=15;fillColor=#f5f5f5;strokeColor=#666666;fontColor=#333333;" vertex="1" parent="1">
          <mxGeometry x="520" y="200" width="200" height="120" as="geometry" />
        </mxCell>
        <mxCell id="UDXJ0XU7svnffhlI9s9G-27" value="" style="shape=tableRow;horizontal=0;startSize=0;swimlaneHead=0;swimlaneBody=0;fillColor=none;collapsible=0;dropTarget=0;points=[[0,0.5],[1,0.5]];portConstraint=eastwest;top=0;left=0;right=0;bottom=0;cloneable=1;rotatable=1;pointerEvents=1;expand=1;swimlaneFillColor=none;align=left;strokeColor=default;swimlaneLine=0;textShadow=0;labelBorderColor=none;labelBackgroundColor=none;verticalAlign=middle;fontColor=default;fontStyle=0" vertex="1" parent="UDXJ0XU7svnffhlI9s9G-26">
          <mxGeometry y="30" width="200" height="30" as="geometry" />
        </mxCell>
        <mxCell id="UDXJ0XU7svnffhlI9s9G-28" value="id" style="shape=partialRectangle;connectable=0;fillColor=none;top=0;left=0;bottom=0;right=0;align=left;spacingLeft=10;overflow=hidden;cloneable=1;rotatable=1;pointerEvents=1;expand=1;swimlaneFillColor=none;fontStyle=1;fontColor=light-dark(#333333, #ededed);html=1;strokeColor=light-dark(#333333, #ededed);swimlaneLine=0;textShadow=0;labelBorderColor=none;labelBackgroundColor=none;verticalAlign=middle;" vertex="1" parent="UDXJ0XU7svnffhlI9s9G-27">
          <mxGeometry width="120" height="30" as="geometry">
            <mxRectangle width="120" height="30" as="alternateBounds" />
          </mxGeometry>
        </mxCell>
        <mxCell id="UDXJ0XU7svnffhlI9s9G-29" value="UUID" style="shape=partialRectangle;connectable=0;fillColor=none;top=0;left=0;bottom=0;right=0;align=right;spacingLeft=0;overflow=hidden;html=1;cloneable=1;rotatable=1;pointerEvents=1;expand=1;swimlaneFillColor=none;fontStyle=2;fontColor=#808080;spacingRight=10;strokeColor=#808080;swimlaneLine=0;textShadow=0;labelBorderColor=none;labelBackgroundColor=none;verticalAlign=middle;" vertex="1" parent="UDXJ0XU7svnffhlI9s9G-27">
          <mxGeometry x="120" width="80" height="30" as="geometry">
            <mxRectangle width="80" height="30" as="alternateBounds" />
          </mxGeometry>
        </mxCell>
        <mxCell id="UDXJ0XU7svnffhlI9s9G-33" style="shape=tableRow;horizontal=0;startSize=0;swimlaneHead=0;swimlaneBody=0;fillColor=none;collapsible=0;dropTarget=0;points=[[0,0.5],[1,0.5]];portConstraint=eastwest;top=0;left=0;right=0;bottom=0;cloneable=1;rotatable=1;pointerEvents=1;expand=1;swimlaneFillColor=none;align=left;swimlaneLine=0;textShadow=0;labelBorderColor=none;labelBackgroundColor=none;verticalAlign=middle;fontColor=default;fontStyle=0;strokeColor=default;" vertex="1" parent="UDXJ0XU7svnffhlI9s9G-26">
          <mxGeometry y="60" width="200" height="30" as="geometry" />
        </mxCell>
        <mxCell id="UDXJ0XU7svnffhlI9s9G-34" value="name" style="shape=partialRectangle;connectable=0;fillColor=none;top=0;left=0;bottom=0;right=0;align=left;spacingLeft=10;overflow=hidden;html=1;cloneable=1;rotatable=1;pointerEvents=1;expand=1;swimlaneFillColor=none;fontStyle=0;fontColor=light-dark(#333333, #ededed);swimlaneLine=0;textShadow=0;labelBorderColor=none;labelBackgroundColor=none;verticalAlign=middle;strokeColor=light-dark(#333333, #ededed);" vertex="1" parent="UDXJ0XU7svnffhlI9s9G-33">
          <mxGeometry width="120" height="30" as="geometry">
            <mxRectangle width="120" height="30" as="alternateBounds" />
          </mxGeometry>
        </mxCell>
        <mxCell id="UDXJ0XU7svnffhlI9s9G-35" value="String" style="shape=partialRectangle;connectable=0;fillColor=none;top=0;left=0;bottom=0;right=0;align=right;spacingLeft=0;overflow=hidden;html=1;cloneable=1;rotatable=1;pointerEvents=1;expand=1;swimlaneFillColor=none;fontStyle=2;fontColor=#808080;spacingRight=10;strokeColor=#808080;swimlaneLine=0;textShadow=0;labelBorderColor=none;labelBackgroundColor=none;verticalAlign=middle;" vertex="1" parent="UDXJ0XU7svnffhlI9s9G-33">
          <mxGeometry x="120" width="80" height="30" as="geometry">
            <mxRectangle width="80" height="30" as="alternateBounds" />
          </mxGeometry>
        </mxCell>
        <mxCell id="UDXJ0XU7svnffhlI9s9G-36" style="shape=tableRow;horizontal=0;startSize=0;swimlaneHead=0;swimlaneBody=0;fillColor=none;collapsible=0;dropTarget=0;points=[[0,0.5],[1,0.5]];portConstraint=eastwest;top=0;left=0;right=0;bottom=0;cloneable=1;rotatable=1;pointerEvents=1;expand=1;swimlaneFillColor=none;align=left;swimlaneLine=0;textShadow=0;labelBorderColor=none;labelBackgroundColor=none;verticalAlign=middle;fontColor=default;fontStyle=0;strokeColor=default;" vertex="1" parent="UDXJ0XU7svnffhlI9s9G-26">
          <mxGeometry y="90" width="200" height="30" as="geometry" />
        </mxCell>
        <mxCell id="UDXJ0XU7svnffhlI9s9G-37" value="description" style="shape=partialRectangle;connectable=0;fillColor=none;top=0;left=0;bottom=0;right=0;align=left;spacingLeft=10;overflow=hidden;html=1;cloneable=1;rotatable=1;pointerEvents=1;expand=1;swimlaneFillColor=none;fontStyle=0;fontColor=light-dark(#333333, #ededed);swimlaneLine=0;textShadow=0;labelBorderColor=none;labelBackgroundColor=none;verticalAlign=middle;strokeColor=light-dark(#333333, #ededed);" vertex="1" parent="UDXJ0XU7svnffhlI9s9G-36">
          <mxGeometry width="120" height="30" as="geometry">
            <mxRectangle width="120" height="30" as="alternateBounds" />
          </mxGeometry>
        </mxCell>
        <mxCell id="UDXJ0XU7svnffhlI9s9G-38" value="String" style="shape=partialRectangle;connectable=0;fillColor=none;top=0;left=0;bottom=0;right=0;align=right;spacingLeft=0;overflow=hidden;html=1;cloneable=1;rotatable=1;pointerEvents=1;expand=1;swimlaneFillColor=none;fontStyle=2;fontColor=#808080;spacingRight=10;strokeColor=#808080;swimlaneLine=0;textShadow=0;labelBorderColor=none;labelBackgroundColor=none;verticalAlign=middle;" vertex="1" parent="UDXJ0XU7svnffhlI9s9G-36">
          <mxGeometry x="120" width="80" height="30" as="geometry">
            <mxRectangle width="80" height="30" as="alternateBounds" />
          </mxGeometry>
        </mxCell>
        <mxCell id="UDXJ0XU7svnffhlI9s9G-42" style="edgeStyle=orthogonalEdgeStyle;rounded=1;orthogonalLoop=1;jettySize=auto;html=1;exitX=0;exitY=0.5;exitDx=0;exitDy=0;entryX=1;entryY=0.5;entryDx=0;entryDy=0;curved=0;" edge="1" parent="1" source="UDXJ0XU7svnffhlI9s9G-27" target="UDXJ0XU7svnffhlI9s9G-11">
          <mxGeometry relative="1" as="geometry" />
        </mxCell>
      </root>
    </mxGraphModel>
  </diagram>
</mxfile>
